<svg xmlns="http://www.w3.org/2000/svg" width="198.9432" height="35" viewBox="0 0 198.9432 35"><!--{"panels":2,"secondaryIcon":"cursor","secondaryIconColor":"#FFFFFF","secondaryIconSize":15,"secondaryIconPosition":"right"}--><path d="M 4 0 L 91.36 0 L 91.36 35 L 4 35 Q 0 35 0 31 L 0 4 Q 0 0 4 0 Z" fill="#3d7b58" /><path d="M 91.36 0 L 194.9432 0 Q 198.9432 0 198.9432 4 L 198.9432 31 Q 198.9432 35 194.9432 35 L 91.36 35 Z" fill="#336a4d" /><text x="45.68" y="17.5" dy="0.35em" font-size="13" font-family="Verdana, sans-serif" fill="#FFFFFF" text-anchor="middle" letter-spacing="1" font-weight="400" fill-opacity="1">Built With</text><g transform="translate(173.9432, 10) scale(0.625)">
        <path d="M11.503.131 1.891 5.678a.84.84 0 0 0-.42.726v11.188c0 .3.162.575.42.724l9.609 5.55a1 1 0 0 0 .998 0l9.61-5.55a.84.84 0 0 0 .42-.724V6.404a.84.84 0 0 0-.42-.726L12.497.131a1.01 1.01 0 0 0-.996 0M2.657 6.338h18.55c.263 0 .43.287.297.515L12.23 22.918c-.062.107-.229.064-.229-.06V12.335a.59.59 0 0 0-.295-.51l-9.11-5.257c-.109-.063-.064-.23.061-.23" fill="#FFFFFF" />
    </g><text x="135.6516" y="17.5" dy="0.35em" font-size="13" font-family="Montserrat, sans-serif" fill="#FFFFFF" text-anchor="middle" letter-spacing="1" font-weight="900" fill-opacity="1" style="text-transform: uppercase">CURSOR</text></svg>